<?xml version="1.0" encoding="UTF-8"?>
<!DOCTYPE svg PUBLIC "-//W3C//DTD SVG 1.1//EN" "http://www.w3.org/Graphics/SVG/1.1/DTD/svg11.dtd">
<svg xmlns="http://www.w3.org/2000/svg" xmlns:xlink="http://www.w3.org/1999/xlink" version="1.1" width="637px" height="278px" viewBox="-0.5 -0.5 637 278"><defs/><g><ellipse cx="139" cy="244" rx="60" ry="15" fill-opacity="0.3" fill="#aaaaaa" stroke="none" pointer-events="all"/><path d="M 8 39 L 8.11 39.04 L 7.6 37.64 L 7.17 36.26 L 6.5 34.8 L 6.21 33.48 L 5.5 32 Q 3 25 5.5 18 L 5.38 17.96 L 5.96 16.59 L 6.63 15.24 L 6.94 13.78 L 7.71 12.48 L 8 11" fill="none" stroke="#c46251" stroke-linejoin="round" stroke-linecap="round" stroke-miterlimit="10" pointer-events="stroke"/><path d="M 3 36 L 2.8 35.95 L 2.58 34.67 L 2.28 33.37 L 1.95 32.06 L 1.82 30.81 L 1.5 29.5 Q 0 23 2 17.5 L 1.89 17.46 L 2.36 16.38 L 2.77 15.29 L 3.22 14.21 L 3.54 13.08 L 4 12" fill="none" stroke="#c46251" stroke-linejoin="round" stroke-linecap="round" stroke-miterlimit="10" pointer-events="stroke"/><path d="M 252 29 L 251.78 28.94 L 252.54 27.54 L 252.72 25.98 L 253.24 24.51 L 253.57 22.99 L 254 21.5 Q 256 14 254 8 L 254.12 8.04 L 253.43 6.74 L 253.12 5.57 L 252.77 4.39 L 252.2 3.13 L 252 2" fill="none" stroke="#c46251" stroke-linejoin="round" stroke-linecap="round" stroke-miterlimit="10" pointer-events="stroke"/><path d="M 257 26 L 257.1 26.02 L 257.28 24.81 L 257.6 23.63 L 257.54 22.39 L 257.86 21.21 L 258 20 Q 259 14 258 10 L 258.09 10.02 L 257.68 9.17 L 257.81 8.45 L 257.39 7.6 L 257.1 6.78 L 257 6" fill="none" stroke="#c46251" stroke-linejoin="round" stroke-linecap="round" stroke-miterlimit="10" pointer-events="stroke"/><path d="M 219 82 L 218.94 81.94 L 221.56 79.39 L 224.24 76.9 L 226.63 74.11 L 229.47 71.79 L 231.93 69.07 Q 239 62 240.96 52.19 L 241.17 52.24 L 242.68 44.18 L 244.26 36.13 L 245.65 28.05 L 247.28 20.02 L 249 12" fill="none" stroke="#5e2f27" stroke-width="3" stroke-linejoin="round" stroke-linecap="round" stroke-miterlimit="10" pointer-events="stroke"/><path d="M 59 82 L 59.03 82.06 L 52.75 78.82 L 46.6 75.83 L 40.45 72.84 L 34.14 69.54 L 27.94 66.47 Q 19 62 16.57 52.3 L 16.79 52.35 L 14.95 46.21 L 13.71 40.22 L 12.25 34.17 L 10.67 28.1 L 9 22" fill="none" stroke="#5e2f27" stroke-width="3" stroke-linejoin="round" stroke-linecap="round" stroke-miterlimit="10" pointer-events="stroke"/><path d="M 111.16 159.44 L 111.25 159.44 L 110.82 165.95 L 110.65 172.48 L 110.22 178.99 L 110.01 185.51 L 109.51 192.01 Q 109 202 109.5 211.99 L 109.66 212 L 109.97 218 L 110.08 223.99 L 110.35 229.99 L 110.76 236 L 111 242" fill="none" stroke="#5e2f27" stroke-width="3" stroke-linejoin="round" stroke-linecap="round" stroke-miterlimit="10" pointer-events="stroke"/><ellipse cx="139" cy="82" rx="80" ry="80" fill="#c88072" stroke="#5e2f27" stroke-width="5" pointer-events="all"/><ellipse cx="109" cy="117" rx="5" ry="5" fill="#9b5243" stroke="none" pointer-events="all"/><ellipse cx="114" cy="67" rx="10" ry="10" fill="#5e2f27" stroke="none" pointer-events="all"/><ellipse cx="164" cy="67" rx="10" ry="10" fill="#5e2f27" stroke="none" pointer-events="all"/><ellipse cx="111" cy="64" rx="3" ry="3" fill="#ffffff" stroke="none" pointer-events="all"/><ellipse cx="161" cy="64" rx="3" ry="3" fill="#ffffff" stroke="none" pointer-events="all"/><ellipse cx="114" cy="80.94" rx="10.039349999999999" ry="3.9369999999999994" fill="#f7a3d5" stroke="none" pointer-events="all"/><ellipse cx="164.04" cy="80.94" rx="10.039349999999999" ry="3.9369999999999994" fill="#f7a3d5" stroke="none" pointer-events="all"/><ellipse cx="144" cy="132" rx="10" ry="10" fill="#9b5243" stroke="none" pointer-events="all"/><ellipse cx="199" cy="92" rx="10" ry="10" fill="#9b5243" stroke="none" pointer-events="all"/><path d="M 158.61 84.26 C 156.75 96.82 148.59 105.88 139.1 105.94 C 129.6 106 121.38 97.05 119.43 84.51" fill="none" stroke="#5e2f27" stroke-width="4" stroke-miterlimit="10" pointer-events="all"/><ellipse cx="94" cy="42" rx="10" ry="10" fill="#9b5243" stroke="none" pointer-events="all"/><ellipse cx="144" cy="43" rx="5" ry="5" fill="#9b5243" stroke="none" pointer-events="all"/><ellipse cx="194" cy="62" rx="5" ry="5" fill="#9b5243" stroke="none" pointer-events="all"/><ellipse cx="74" cy="67" rx="5" ry="5" fill="#9b5243" stroke="none" pointer-events="all"/><ellipse cx="178" cy="28" rx="10" ry="10" fill="#9b5243" stroke="none" pointer-events="all"/><ellipse cx="79" cy="95.94" rx="10" ry="10" fill="#9b5243" stroke="none" pointer-events="all"/><path d="M 164.12 158.32 L 163.94 158.3 L 164.9 165.07 L 165.42 171.79 L 166.41 178.57 L 167.14 185.31 L 167.89 192.06 Q 169 202 167.76 211.92 L 167.54 211.9 L 167.21 217.96 L 166.18 223.94 L 165.75 230 L 164.91 236 L 164 242" fill="none" stroke="#5e2f27" stroke-width="3" stroke-linejoin="round" stroke-linecap="round" stroke-miterlimit="10" pointer-events="stroke"/><ellipse cx="336.19" cy="153.71" rx="51.71277997364954" ry="51.71277997364954" fill="#ffcc99" stroke="#5e2f27" stroke-width="5" pointer-events="all"/><ellipse cx="308.81" cy="165.88" rx="6.083856467488181" ry="6.083856467488181" fill="#9b5243" stroke="none" pointer-events="all"/><ellipse cx="339.23" cy="184.13" rx="6.083856467488181" ry="6.083856467488181" fill="#9b5243" stroke="none" pointer-events="all"/><ellipse cx="339.23" cy="111.13" rx="6.083856467488181" ry="6.083856467488181" fill="#9b5243" stroke="none" pointer-events="all"/><ellipse cx="311.85" cy="126.98" rx="3.0419282337440907" ry="3.0419282337440907" fill="#9b5243" stroke="none" pointer-events="all"/><ellipse cx="327.06" cy="138.54" rx="6.083856467488181" ry="6.083856467488181" fill="#5e2f27" stroke="none" pointer-events="all"/><ellipse cx="345.31" cy="138.54" rx="6.083856467488181" ry="6.083856467488181" fill="#5e2f27" stroke="none" pointer-events="all"/><ellipse cx="325.24" cy="136.71" rx="2.4335425869952725" ry="2.4335425869952725" fill="#ffffff" stroke="none" pointer-events="all"/><ellipse cx="347.14" cy="136.71" rx="2.4335425869952725" ry="2.4335425869952725" fill="#ffffff" stroke="none" pointer-events="all"/><ellipse cx="360.52" cy="126.98" rx="3.0419282337440907" ry="3.0419282337440907" fill="#9b5243" stroke="none" pointer-events="all"/><ellipse cx="360.52" cy="169.57" rx="3.0419282337440907" ry="3.0419282337440907" fill="#9b5243" stroke="none" pointer-events="all"/><ellipse cx="330.1" cy="169.57" rx="3.0419282337440907" ry="3.0419282337440907" fill="#9b5243" stroke="none" pointer-events="all"/><ellipse cx="369.65" cy="153.71" rx="6.083856467488181" ry="6.083856467488181" fill="#9b5243" stroke="none" pointer-events="all"/><ellipse cx="339.23" cy="249.87" rx="36.50333333333333" ry="9.125784701232272" fill-opacity="0.3" fill="#aaaaaa" stroke="none" pointer-events="all"/><path d="M 325.09 203.44 L 325.21 203.46 L 324.49 205.62 L 324.16 207.86 L 323.63 210.05 L 323.11 212.25 L 322.91 214.51 Q 320.98 224.32 321.24 234.32 L 321.33 234.32 L 321.39 236.95 L 321.24 239.56 L 321.52 242.19 L 321.49 244.82 L 321.59 247.44" fill="none" stroke="#5e2f27" stroke-width="3" stroke-linejoin="round" stroke-linecap="round" stroke-miterlimit="10" pointer-events="stroke"/><path d="M 347.83 205.3 L 347.69 205.27 L 348.52 207.34 L 348.9 209.29 L 349.31 211.25 L 349.82 213.23 L 350.58 215.29 Q 353.22 224.93 353.74 234.92 L 353.69 234.91 L 353.63 237.65 L 353.86 240.41 L 354.1 243.16 L 354.31 245.91 L 354.44 248.66" fill="none" stroke="#5e2f27" stroke-width="3" stroke-linejoin="round" stroke-linecap="round" stroke-miterlimit="10" pointer-events="stroke"/><path d="M 284.48 153.71 L 284.55 153.73 L 283.88 156.41 L 283.02 159.04 L 282.36 161.72 L 281.74 164.41 L 281.3 167.14 Q 279 176.87 273 184.87 L 272.91 184.8 L 271.79 186.79 L 270.35 188.52 L 269.12 190.43 L 267.46 192.01 L 266.22 193.9" fill="none" stroke="#5e2f27" stroke-width="3" stroke-linejoin="round" stroke-linecap="round" stroke-miterlimit="10" pointer-events="stroke"/><path d="M 388.52 154.75 L 388.42 154.75 L 388.39 158.14 L 388.41 161.54 L 388.45 164.94 L 388.4 168.34 L 388.51 171.74 Q 388.51 181.74 384.5 190.9 L 384.72 190.99 L 383.41 192.88 L 382.76 195.05 L 381.9 197.13 L 381.1 199.23 L 379.99 201.2" fill="none" stroke="#5e2f27" stroke-width="3" stroke-linejoin="round" stroke-linecap="round" stroke-miterlimit="10" pointer-events="stroke"/><ellipse cx="336.29" cy="154.38" rx="2.147601333023328" ry="2.147601333023328" fill="#5e2f27" stroke="none" pointer-events="all"/><ellipse cx="343.19" cy="140.67" rx="0.912578470123227" ry="0.912578470123227" fill="#ffffff" stroke="none" pointer-events="all"/><ellipse cx="329.19" cy="140.67" rx="0.912578470123227" ry="0.912578470123227" fill="#ffffff" stroke="none" pointer-events="all"/><ellipse cx="325.24" cy="138.54" rx="1.2167712934976362" ry="1.2167712934976362" fill="#ffffff" stroke="none" pointer-events="all"/><ellipse cx="347.14" cy="138.54" rx="1.2167712934976362" ry="1.2167712934976362" fill="#ffffff" stroke="none" pointer-events="all"/><ellipse cx="324.02" cy="187.82" rx="3.0419282337440907" ry="3.0419282337440907" fill="#9b5243" stroke="none" pointer-events="all"/><ellipse cx="302.73" cy="147.63" rx="6.083856467488181" ry="6.083856467488181" fill="#9b5243" stroke="none" pointer-events="all"/><ellipse cx="327.06" cy="147.02" rx="3.0419444444444443" ry="0.6083856467488181" fill="#ff0080" stroke="none" pointer-events="all"/><ellipse cx="345.31" cy="147.02" rx="3.0419444444444443" ry="0.6083856467488181" fill="#ff0080" stroke="none" pointer-events="all"/><ellipse cx="541.37" cy="244.21" rx="82.10222222222221" ry="30.789473684210527" fill-opacity="0.3" fill="#aaaaaa" stroke="none" pointer-events="all"/><path d="M 633.73 168.26 L 633.61 168.26 L 633.82 164.11 L 633.68 159.95 L 633.85 155.79 L 633.76 151.63 L 633.73 147.47 Q 633.73 137.47 630.75 127.93 L 630.79 127.94 L 629.14 123.22 L 627.88 118.62 L 626.17 113.88 L 624.93 109.29 L 623.47 104.63" fill="none" stroke="#000000" stroke-width="2" stroke-linejoin="round" stroke-linecap="round" stroke-miterlimit="10" pointer-events="stroke"/><path d="M 449 166.21 L 448.82 166.21 L 449.1 162.46 L 449.16 158.72 L 448.77 154.97 L 449.16 151.22 L 449 147.47 Q 449 137.47 451.98 127.93 L 451.94 127.91 L 453.22 123.2 L 454.66 118.54 L 456.43 113.98 L 457.76 109.28 L 459.26 104.63" fill="none" stroke="#000000" stroke-width="2" stroke-linejoin="round" stroke-linecap="round" stroke-miterlimit="10" pointer-events="stroke"/><path d="M 558.89 240.11 L 558.34 240.11 Q 557.79 240.11 557.97 230.11 L 558.14 230.11 L 558.15 225.14 L 558.28 220.18 L 558.15 215.21 L 558.5 210.25 L 558.44 205.28" fill="none" stroke="#000000" stroke-width="2" stroke-linejoin="round" stroke-linecap="round" stroke-miterlimit="10" pointer-events="stroke"/><ellipse cx="561.89" cy="240.11" rx="3" ry="3" fill="#000000" stroke="#000000" stroke-width="2" pointer-events="all"/><path d="M 505.37 240.11 L 506.95 240.11 Q 508.52 240.11 508.57 230.11 L 508.73 230.11 L 508.72 224.94 L 508.65 219.77 L 508.8 214.6 L 508.87 209.44 L 508.69 204.27" fill="none" stroke="#000000" stroke-width="2" stroke-linejoin="round" stroke-linecap="round" stroke-miterlimit="10" pointer-events="stroke"/><ellipse cx="502.37" cy="240.11" rx="3" ry="3" fill="#000000" stroke="#000000" stroke-width="2" pointer-events="all"/><rect x="459.26" y="22.53" width="164.2" height="164.21" fill="#afdbf8" stroke="none" pointer-events="all"/><ellipse cx="541.37" cy="22.53" rx="82.10222222222221" ry="20.526315789473692" fill="#afdbf8" stroke="none" pointer-events="all"/><ellipse cx="541.37" cy="22.53" rx="65.68177777777778" ry="16.42105263157895" fill="#94d0f2" stroke="none" pointer-events="all"/><ellipse cx="541.37" cy="187.76" rx="82.10222222222221" ry="17.447368421052634" fill="#afdbf8" stroke="none" pointer-events="all"/><path d="M 469.53 88.58 C 469.53 55.25 613.2 55.25 613.2 88.58 L 613.2 161.74 C 613.2 195.07 469.53 195.07 469.53 161.74 Z" fill="#ffffff" stroke="none" pointer-events="all"/><path d="M 469.53 88.58 C 469.53 113.58 613.2 113.58 613.2 88.58" fill="none" stroke="none" pointer-events="all"/><path d="M 500.83 68.71 C 470.86 68.71 463.37 94.37 487.34 99.5 C 463.37 110.79 490.34 135.42 509.82 125.16 C 523.3 145.68 568.25 145.68 583.24 125.16 C 613.2 125.16 613.2 104.63 594.47 94.37 C 613.2 73.84 583.24 53.32 557.02 63.58 C 538.29 48.18 508.32 48.18 500.83 68.71 Z" fill="#ffffff" stroke="none" pointer-events="all"/><ellipse cx="515.71" cy="127.21" rx="7.183944444444443" ry="4.105263157894737" fill="#ffcccc" stroke="none" pointer-events="all"/><ellipse cx="564.97" cy="127.21" rx="7.183944444444443" ry="4.105263157894737" fill="#ffcccc" stroke="none" pointer-events="all"/><path d="M 531.1 127.13 C 531.15 122.63 535.27 119 540.34 119 C 545.4 119 549.52 122.63 549.57 127.13" fill="none" stroke="#000000" stroke-linejoin="round" stroke-linecap="round" stroke-miterlimit="10" transform="rotate(-180,540.34,127.21)" pointer-events="all"/><path d="M 582.42 45.11 L 582.4 44.95 L 584.27 44.96 L 586.13 44.83 L 587.93 44.26 L 589.8 44.23 L 591.65 44.08 Q 600.89 43.05 606.02 39.97 L 606.01 39.96 L 607.09 39.43 L 608.02 38.66 L 609.15 38.21 L 610.18 37.59 L 611.15 36.89" fill="none" stroke="#ffffff" stroke-width="2" stroke-linejoin="round" stroke-linecap="round" stroke-miterlimit="10" pointer-events="stroke"/><ellipse cx="554.71" cy="113.87" rx="3.0788333333333333" ry="3.0788333333333333" fill="#000000" stroke="#000000" pointer-events="all"/><ellipse cx="523.92" cy="113.87" rx="3.0788333333333333" ry="3.0788333333333333" fill="#000000" stroke="#000000" pointer-events="all"/></g></svg>